<svg width="24" height="25" viewBox="0 0 24 25" fill="none" xmlns="http://www.w3.org/2000/svg">
<path d="M12.75 16.4199H13.4C14.05 16.4199 14.59 15.8399 14.59 15.1399C14.59 14.2699 14.28 14.0999 13.77 13.9199L12.76 13.5699V16.4199H12.75Z" fill="#FEDC00"/>
<path d="M11.9699 2.40004C6.44994 2.42004 1.97994 6.91004 1.99994 12.43C2.01994 17.95 6.50994 22.42 12.0299 22.4C17.5499 22.38 22.0199 17.89 21.9999 12.37C21.9799 6.85004 17.4899 2.39004 11.9699 2.40004ZM14.2599 12.5C15.0399 12.77 16.0899 13.35 16.0899 15.14C16.0899 16.68 14.8799 17.92 13.3999 17.92H12.7499V18.5C12.7499 18.91 12.4099 19.25 11.9999 19.25C11.5899 19.25 11.2499 18.91 11.2499 18.5V17.92H10.8899C9.24995 17.92 7.91994 16.54 7.91994 14.84C7.91994 14.43 8.25994 14.09 8.66994 14.09C9.07994 14.09 9.41994 14.43 9.41994 14.84C9.41994 15.71 10.0799 16.42 10.8899 16.42H11.2499V13.04L9.73994 12.5C8.95994 12.23 7.90994 11.65 7.90994 9.86004C7.90994 8.32004 9.11995 7.08004 10.5999 7.08004H11.2499V6.50004C11.2499 6.09004 11.5899 5.75004 11.9999 5.75004C12.4099 5.75004 12.7499 6.09004 12.7499 6.50004V7.08004H13.1099C14.7499 7.08004 16.0799 8.46004 16.0799 10.16C16.0799 10.57 15.7399 10.91 15.3299 10.91C14.9199 10.91 14.5799 10.57 14.5799 10.16C14.5799 9.29004 13.9199 8.58004 13.1099 8.58004H12.7499V11.96L14.2599 12.5Z" fill="#FEDC00"/>
<path d="M9.42004 9.86996C9.42004 10.74 9.73004 10.91 10.24 11.09L11.25 11.44V8.57996H10.6C9.95004 8.57996 9.42004 9.15996 9.42004 9.86996Z" fill="#FEDC00"/>
</svg>
